<svg width="30.000000" height="30.000000" viewBox="0 0 30 30" fill="none" xmlns="http://www.w3.org/2000/svg" xmlns:xlink="http://www.w3.org/1999/xlink">
	<desc>
			Created with Pixso.
	</desc>
	<defs>
		<clipPath id="clip14_584">
			<rect id="shopping-cart-03" rx="-0.500000" width="29.000000" height="29.000000" transform="translate(0.500000 0.500000)" fill="white" fill-opacity="0"/>
		</clipPath>
	</defs>
	<rect id="shopping-cart-03" rx="-0.500000" width="29.000000" height="29.000000" transform="translate(0.500000 0.500000)" fill="#343434" fill-opacity="0"/>
	<g clip-path="url(#clip14_584)">
		<path id="Icon" d="M6.25 17.5L22.66 17.5C23.93 17.5 24.56 17.5 25.07 17.26C25.51 17.05 25.88 16.72 26.14 16.3C26.43 15.82 26.5 15.2 26.64 13.94L27.37 7.36C27.41 6.97 27.44 6.78 27.37 6.63C27.32 6.5 27.22 6.39 27.1 6.32C26.96 6.25 26.76 6.25 26.38 6.25L5.62 6.25M2.5 2.5L4.06 2.5C4.39 2.5 4.55 2.5 4.68 2.56C4.8 2.61 4.89 2.7 4.95 2.81C5.02 2.94 5.03 3.1 5.05 3.43L6.19 21.56C6.21 21.89 6.22 22.05 6.29 22.18C6.35 22.29 6.44 22.38 6.56 22.43C6.69 22.5 6.85 22.5 7.18 22.5L23.75 22.5M9.37 26.87L9.38 26.87M9.37 27.5C9.02 27.5 8.75 27.22 8.75 26.87C8.75 26.52 9.02 26.25 9.37 26.25C9.72 26.25 10 26.52 10 26.87C10 27.22 9.72 27.5 9.37 27.5ZM20.62 26.87L20.63 26.87M20.62 27.5C20.27 27.5 20 27.22 20 26.87C20 26.52 20.27 26.25 20.62 26.25C20.97 26.25 21.25 26.52 21.25 26.87C21.25 27.22 20.97 27.5 20.62 27.5Z" stroke="#343434" stroke-opacity="1.000000" stroke-width="2.000000" stroke-linejoin="round" stroke-linecap="round"/>
	</g>
</svg>
