<svg width="20.000000" height="20.000000" viewBox="0 0 20 20" fill="none" xmlns="http://www.w3.org/2000/svg" xmlns:xlink="http://www.w3.org/1999/xlink">
	<desc>
			Created with Pixso.
	</desc>
	<defs>
		<clipPath id="clip14_660">
			<rect id="shopping-cart-03" rx="-0.500000" width="19.000000" height="19.000000" transform="translate(0.500000 0.500000)" fill="white" fill-opacity="0"/>
		</clipPath>
	</defs>
	<rect id="shopping-cart-03" rx="-0.500000" width="19.000000" height="19.000000" transform="translate(0.500000 0.500000)" fill="#FFFFFF" fill-opacity="0"/>
	<g clip-path="url(#clip14_660)">
		<path id="Icon" d="M4.16 11.66L15.11 11.66C15.95 11.66 16.37 11.66 16.71 11.5C17.01 11.37 17.26 11.14 17.43 10.86C17.62 10.55 17.67 10.13 17.76 9.29L18.25 4.9C18.27 4.65 18.29 4.52 18.25 4.42C18.21 4.33 18.15 4.26 18.06 4.21C17.97 4.16 17.84 4.16 17.58 4.16L3.75 4.16M1.66 1.66L2.7 1.66C2.92 1.66 3.03 1.66 3.12 1.7C3.2 1.74 3.26 1.8 3.3 1.87C3.35 1.96 3.35 2.07 3.37 2.29L4.12 14.37C4.14 14.59 4.14 14.7 4.19 14.78C4.23 14.86 4.3 14.92 4.37 14.95C4.46 15 4.57 15 4.79 15L15.83 15M6.25 17.91L6.25 17.91M6.25 18.33C6.02 18.33 5.83 18.14 5.83 17.91C5.83 17.68 6.02 17.5 6.25 17.5C6.48 17.5 6.66 17.68 6.66 17.91C6.66 18.14 6.48 18.33 6.25 18.33ZM13.75 17.91L13.75 17.91M13.75 18.33C13.52 18.33 13.33 18.14 13.33 17.91C13.33 17.68 13.52 17.5 13.75 17.5C13.98 17.5 14.16 17.68 14.16 17.91C14.16 18.14 13.98 18.33 13.75 18.33Z" stroke="#343434" stroke-opacity="1.000000" stroke-width="2.000000" stroke-linejoin="round" stroke-linecap="round"/>
	</g>
</svg>
