<svg width="20.000000" height="20.000000" viewBox="0 0 20 20" fill="none" xmlns="http://www.w3.org/2000/svg" xmlns:xlink="http://www.w3.org/1999/xlink">
	<desc>
			Created with Pixso.
	</desc>
	<defs>
		<clipPath id="clip14_666">
			<rect id="home-03" rx="-0.500000" width="19.000000" height="19.000000" transform="translate(0.500000 0.500000)" fill="white" fill-opacity="0"/>
		</clipPath>
	</defs>
	<rect id="home-03" rx="-0.500000" width="19.000000" height="19.000000" transform="translate(0.500000 0.500000)" fill="#FFFFFF" fill-opacity="0"/>
	<g clip-path="url(#clip14_666)">
		<path id="Icon" d="M7.5 17.5L7.5 11.33C7.5 10.86 7.5 10.63 7.59 10.45C7.67 10.29 7.79 10.17 7.95 10.09C8.13 10 8.36 10 8.83 10L11.16 10C11.63 10 11.86 10 12.04 10.09C12.2 10.17 12.32 10.29 12.4 10.45C12.5 10.63 12.5 10.86 12.5 11.33L12.5 17.5M16.66 14.83C16.66 15.76 16.66 16.23 16.48 16.59C16.32 16.9 16.07 17.15 15.75 17.31C15.4 17.5 14.93 17.5 14 17.5L6 17.5C5.06 17.5 4.59 17.5 4.24 17.31C3.92 17.15 3.67 16.9 3.51 16.59C3.33 16.23 3.33 15.76 3.33 14.83L3.33 6.66L8.4 2.86C8.97 2.43 9.26 2.22 9.57 2.13C9.85 2.06 10.14 2.06 10.42 2.13C10.73 2.22 11.02 2.43 11.6 2.86L16.66 6.66L16.66 14.83ZM1.66 7.91L9.2 2.26C9.48 2.05 9.63 1.94 9.78 1.9C9.92 1.86 10.07 1.86 10.21 1.9C10.36 1.94 10.51 2.05 10.8 2.26L18.33 7.91" stroke="#28A745" stroke-opacity="1.000000" stroke-width="2.000000" stroke-linejoin="round" stroke-linecap="round"/>
	</g>
</svg>
