<svg width="24.000000" height="24.000000" viewBox="0 0 24 24" fill="none" xmlns="http://www.w3.org/2000/svg" xmlns:xlink="http://www.w3.org/1999/xlink">
	<desc>
			Created with Pixso.
	</desc>
	<defs>
		<clipPath id="clip14_567">
			<rect id="credit-card-check" rx="-0.500000" width="23.000000" height="23.000000" transform="translate(0.500000 0.500000)" fill="white" fill-opacity="0"/>
		</clipPath>
	</defs>
	<rect id="credit-card-check" rx="-0.500000" width="23.000000" height="23.000000" transform="translate(0.500000 0.500000)" fill="#FFFFFF" fill-opacity="0"/>
	<g clip-path="url(#clip14_567)">
		<path id="Icon" d="M16 18L18 20L22 16M22 10L2 10M12 19L5.19 19C4.07 19 3.51 19 3.09 18.78C2.71 18.59 2.4 18.28 2.21 17.9C2 17.48 2 16.92 2 15.8L2 8.2C2 7.07 2 6.51 2.21 6.09C2.4 5.71 2.71 5.4 3.09 5.21C3.51 5 4.07 5 5.19 5L18.79 5C19.92 5 20.48 5 20.9 5.21C21.28 5.4 21.59 5.71 21.78 6.09C22 6.51 22 7.07 22 8.2L22 12" stroke="#FFFFFF" stroke-opacity="1.000000" stroke-width="2.300000" stroke-linejoin="round" stroke-linecap="round"/>
	</g>
</svg>
