<svg width="13.500000" height="15.500000" viewBox="0 0 13.5 15.5" fill="none" xmlns="http://www.w3.org/2000/svg" xmlns:xlink="http://www.w3.org/1999/xlink">
	<desc>
			Created with Pixso.
	</desc>
	<defs/>
	<path id="Vector" d="M12.75 14.75L12.75 13.08C12.75 12.19 12.43 11.35 11.87 10.72C11.3 10.1 10.54 9.75 9.75 9.75L3.75 9.75C2.95 9.75 2.19 10.1 1.62 10.72C1.06 11.35 0.75 12.19 0.75 13.08L0.75 14.75" stroke="#343434" stroke-opacity="1.000000" stroke-width="1.500000" stroke-linejoin="round" stroke-linecap="round"/>
	<path id="Vector" d="M6.75 6.75C5.09 6.75 3.75 5.4 3.75 3.75C3.75 2.09 5.09 0.75 6.75 0.75C8.4 0.75 9.75 2.09 9.75 3.75C9.75 5.4 8.4 6.75 6.75 6.75Z" stroke="#343434" stroke-opacity="1.000000" stroke-width="1.500000" stroke-linejoin="round"/>
</svg>
