<svg width="15.881104" height="15.842102" viewBox="0 0 15.8811 15.8421" fill="none" xmlns="http://www.w3.org/2000/svg" xmlns:xlink="http://www.w3.org/1999/xlink">
	<desc>
			Created with Pixso.
	</desc>
	<defs/>
	<path id="Call" d="M3.71 0.75C3.99 0.77 4.23 0.93 4.43 1.13C4.88 1.57 6.17 3.24 6.25 3.59C6.42 4.45 4.93 5.22 5.25 6.09C6.05 8.05 7.79 9.79 9.75 10.59C10.61 10.9 11.38 9.41 12.25 9.59C12.6 9.66 14.3 11.14 14.75 11.59C14.94 11.78 15.1 12.03 15.13 12.3C15.16 13.26 13.29 14.56 13 14.73C12.31 15.22 11.42 15.21 10.33 14.7C7.28 13.43 2.42 8.66 1.13 5.51C0.64 4.42 0.6 3.52 1.11 2.84C1.34 2.45 2.8 0.7 3.71 0.75Z" stroke="#343434" stroke-opacity="1.000000" stroke-width="1.500000" stroke-linejoin="round"/>
</svg>
