<svg width="18.119507" height="18.105774" viewBox="0 0 18.1195 18.1058" fill="none" xmlns="http://www.w3.org/2000/svg" xmlns:xlink="http://www.w3.org/1999/xlink">
	<desc>
			Created with Pixso.
	</desc>
	<defs/>
	<path id="Vector" d="M17.86 16.57L14.5 13.24C15.8 11.62 16.44 9.55 16.27 7.48C16.09 5.4 15.13 3.47 13.58 2.08C12.03 0.68 10 -0.06 7.92 0C5.84 0.06 3.86 0.91 2.38 2.38C0.91 3.86 0.06 5.84 0 7.92C-0.06 10 0.68 12.03 2.08 13.58C3.47 15.13 5.4 16.09 7.48 16.27C9.55 16.44 11.62 15.8 13.24 14.5L16.57 17.83C16.66 17.92 16.76 17.99 16.87 18.03C16.98 18.08 17.1 18.1 17.22 18.1C17.34 18.1 17.46 18.08 17.57 18.03C17.68 17.99 17.78 17.92 17.86 17.83C18.02 17.66 18.11 17.44 18.11 17.2C18.11 16.97 18.02 16.74 17.86 16.57ZM8.16 14.5C6.91 14.5 5.68 14.13 4.64 13.43C3.6 12.74 2.79 11.75 2.31 10.59C1.83 9.43 1.7 8.16 1.95 6.93C2.19 5.7 2.79 4.57 3.68 3.68C4.57 2.79 5.7 2.19 6.93 1.95C8.16 1.7 9.43 1.83 10.59 2.31C11.75 2.79 12.74 3.6 13.43 4.64C14.13 5.68 14.5 6.91 14.5 8.16C14.5 9.84 13.83 11.46 12.64 12.64C11.46 13.83 9.84 14.5 8.16 14.5Z" fill="#000000" fill-opacity="0.470000" fill-rule="nonzero"/>
</svg>
