<svg width="24.000000" height="24.000000" viewBox="0 0 24 24" fill="none" xmlns="http://www.w3.org/2000/svg" xmlns:xlink="http://www.w3.org/1999/xlink">
	<desc>
			Created with Pixso.
	</desc>
	<defs>
		<clipPath id="clip14_333">
			<rect id="message-dots-square" rx="-0.500000" width="23.000000" height="23.000000" transform="translate(0.500000 0.500000)" fill="white" fill-opacity="0"/>
		</clipPath>
	</defs>
	<rect id="message-dots-square" rx="-0.500000" width="23.000000" height="23.000000" transform="translate(0.500000 0.500000)" fill="#FFFFFF" fill-opacity="0"/>
	<g clip-path="url(#clip14_333)">
		<path id="Icon" d="M16.2 3C17.88 3 18.72 3 19.36 3.32C19.92 3.61 20.38 4.07 20.67 4.63C21 5.27 21 6.11 21 7.79L21 13.2C21 14.88 21 15.72 20.67 16.36C20.38 16.92 19.92 17.38 19.36 17.67C18.72 18 17.88 18 16.2 18L13.68 18C13.05 18 12.74 18 12.44 18.06C12.18 18.11 11.92 18.2 11.68 18.32C11.41 18.46 11.17 18.66 10.68 19.05L8.29 20.96C7.88 21.29 7.67 21.45 7.5 21.45C7.34 21.45 7.2 21.39 7.1 21.27C7 21.13 7 20.86 7 20.33L7 18C6.07 18 5.6 18 5.22 17.89C4.18 17.62 3.37 16.81 3.1 15.77C3 15.39 3 14.93 3 14L3 7.79C3 6.11 3 5.27 3.32 4.63C3.61 4.07 4.07 3.61 4.63 3.32C5.27 3 6.11 3 7.8 3L16.2 3ZM7.5 10.5L7.51 10.5M7.5 11C7.22 11 7 10.77 7 10.5C7 10.22 7.22 10 7.5 10C7.77 10 8 10.22 8 10.5C8 10.77 7.77 11 7.5 11ZM12 10.5L12.01 10.5M12 11C11.72 11 11.5 10.77 11.5 10.5C11.5 10.22 11.72 10 12 10C12.27 10 12.5 10.22 12.5 10.5C12.5 10.77 12.27 11 12 11ZM16.5 10.5L16.51 10.5M16.5 11C16.22 11 16 10.77 16 10.5C16 10.22 16.22 10 16.5 10C16.77 10 17 10.22 17 10.5C17 10.77 16.77 11 16.5 11Z" stroke="#FFFFFF" stroke-opacity="1.000000" stroke-width="2.000000" stroke-linejoin="round" stroke-linecap="round"/>
	</g>
</svg>
