<svg width="188.000000" height="188.000000" viewBox="0 0 188 188" fill="none" xmlns="http://www.w3.org/2000/svg" xmlns:xlink="http://www.w3.org/1999/xlink">
	<desc>
			Created with Pixso.
	</desc>
	<defs>
		<clipPath id="clip14_726">
			<rect id="загруженное 1" rx="-0.094000" width="187.811996" height="187.811996" transform="translate(0.094000 0.094000)" fill="white" fill-opacity="0"/>
		</clipPath>
		<linearGradient x1="95.594185" y1="138.623672" x2="109.226067" y2="100.991699" id="paint_linear_14_727_0" gradientUnits="userSpaceOnUse">
			<stop stop-color="#CCD2D6" stop-opacity="0.501961"/>
			<stop offset="1.000000" stop-color="#CCD2D6"/>
		</linearGradient>
		<linearGradient x1="89.346985" y1="80.492203" x2="89.346985" y2="150.302246" id="paint_linear_14_728_0" gradientUnits="userSpaceOnUse">
			<stop stop-color="#CCD2D6" stop-opacity="0.250980"/>
			<stop offset="1.000000" stop-color="#CCD2D6" stop-opacity="0.501961"/>
		</linearGradient>
		<linearGradient x1="97.825790" y1="96.537994" x2="111.361832" y2="141.176697" id="paint_linear_14_729_0" gradientUnits="userSpaceOnUse">
			<stop offset="0.180000" stop-color="#CCD2D6" stop-opacity="0.000000"/>
			<stop offset="1.000000" stop-color="#CCD2D6" stop-opacity="0.501961"/>
		</linearGradient>
		<linearGradient x1="59.111053" y1="155.947876" x2="59.111053" y2="176.947479" id="paint_linear_14_730_0" gradientUnits="userSpaceOnUse">
			<stop stop-color="#CCD2D6" stop-opacity="0.250980"/>
			<stop offset="1.000000" stop-color="#CCD2D6" stop-opacity="0.501961"/>
		</linearGradient>
		<linearGradient x1="59.110992" y1="162.860626" x2="59.110992" y2="173.065262" id="paint_linear_14_731_0" gradientUnits="userSpaceOnUse">
			<stop stop-color="#CCD2D6" stop-opacity="0.501961"/>
			<stop offset="1.000000" stop-color="#CCD2D6"/>
		</linearGradient>
		<linearGradient x1="118.033905" y1="155.947876" x2="118.033905" y2="176.947479" id="paint_linear_14_732_0" gradientUnits="userSpaceOnUse">
			<stop stop-color="#CCD2D6" stop-opacity="0.250980"/>
			<stop offset="1.000000" stop-color="#CCD2D6" stop-opacity="0.501961"/>
		</linearGradient>
		<linearGradient x1="118.033836" y1="162.860626" x2="118.033836" y2="173.065262" id="paint_linear_14_733_0" gradientUnits="userSpaceOnUse">
			<stop stop-color="#CCD2D6" stop-opacity="0.501961"/>
			<stop offset="1.000000" stop-color="#CCD2D6"/>
		</linearGradient>
		<linearGradient x1="152.755661" y1="46.765015" x2="168.500656" y2="65.580055" id="paint_linear_14_738_0" gradientUnits="userSpaceOnUse">
			<stop stop-color="#CCD2D6" stop-opacity="0.501961"/>
			<stop offset="1.000000" stop-color="#CCD2D6"/>
		</linearGradient>
		<linearGradient x1="177.394882" y1="34.411530" x2="177.394882" y2="55.183655" id="paint_linear_14_739_0" gradientUnits="userSpaceOnUse">
			<stop stop-color="#CCD2D6" stop-opacity="0.250980"/>
			<stop offset="1.000000" stop-color="#CCD2D6" stop-opacity="0.501961"/>
		</linearGradient>
		<linearGradient x1="143.212769" y1="81.067482" x2="143.212769" y2="131.569916" id="paint_linear_14_741_0" gradientUnits="userSpaceOnUse">
			<stop stop-color="#CCD2D6" stop-opacity="0.501961"/>
			<stop offset="1.000000" stop-color="#CCD2D6"/>
		</linearGradient>
		<linearGradient x1="143.222076" y1="94.603470" x2="143.222076" y2="123.709641" id="paint_linear_14_742_0" gradientUnits="userSpaceOnUse">
			<stop stop-color="#CCD2D6" stop-opacity="0.501961"/>
			<stop offset="1.000000" stop-color="#CCD2D6"/>
		</linearGradient>
		<linearGradient x1="105.289383" y1="32.811626" x2="100.969147" y2="62.476147" id="paint_linear_14_744_0" gradientUnits="userSpaceOnUse">
			<stop stop-color="#CCD2D6" stop-opacity="0.501961"/>
			<stop offset="1.000000" stop-color="#CCD2D6"/>
		</linearGradient>
		<linearGradient x1="83.611160" y1="29.655128" x2="79.290939" y2="59.317760" id="paint_linear_14_745_0" gradientUnits="userSpaceOnUse">
			<stop stop-color="#CCD2D6" stop-opacity="0.501961"/>
			<stop offset="1.000000" stop-color="#CCD2D6"/>
		</linearGradient>
		<linearGradient x1="42.589523" y1="93.105118" x2="47.580933" y2="138.416870" id="paint_linear_14_747_0" gradientUnits="userSpaceOnUse">
			<stop stop-color="#CCD2D6" stop-opacity="0.501961"/>
			<stop offset="1.000000" stop-color="#CCD2D6"/>
		</linearGradient>
		<linearGradient x1="59.545170" y1="91.238304" x2="64.536530" y2="136.550064" id="paint_linear_14_748_0" gradientUnits="userSpaceOnUse">
			<stop stop-color="#CCD2D6" stop-opacity="0.501961"/>
			<stop offset="1.000000" stop-color="#CCD2D6"/>
		</linearGradient>
		<linearGradient x1="75.551483" y1="89.474846" x2="80.542831" y2="134.786591" id="paint_linear_14_749_0" gradientUnits="userSpaceOnUse">
			<stop stop-color="#CCD2D6" stop-opacity="0.501961"/>
			<stop offset="1.000000" stop-color="#CCD2D6"/>
		</linearGradient>
		<linearGradient x1="140.702972" y1="50.828125" x2="140.702972" y2="189.366318" id="paint_linear_14_751_0" gradientUnits="userSpaceOnUse">
			<stop stop-color="#CCD2D6" stop-opacity="0.101961"/>
			<stop offset="1.000000" stop-color="#CCD2D6" stop-opacity="0.250980"/>
		</linearGradient>
		<linearGradient x1="91.708260" y1="50.827682" x2="91.708260" y2="189.366760" id="paint_linear_14_752_0" gradientUnits="userSpaceOnUse">
			<stop stop-color="#CCD2D6" stop-opacity="0.101961"/>
			<stop offset="1.000000" stop-color="#CCD2D6" stop-opacity="0.250980"/>
		</linearGradient>
		<linearGradient x1="143.212646" y1="92.588127" x2="143.212646" y2="108.239120" id="paint_linear_14_753_0" gradientUnits="userSpaceOnUse">
			<stop stop-color="#CCD2D6" stop-opacity="0.101961"/>
			<stop offset="1.000000" stop-color="#CCD2D6" stop-opacity="0.250980"/>
		</linearGradient>
		<linearGradient x1="170.134277" y1="50.827671" x2="170.134277" y2="189.366760" id="paint_linear_14_754_0" gradientUnits="userSpaceOnUse">
			<stop stop-color="#CCD2D6" stop-opacity="0.101961"/>
			<stop offset="1.000000" stop-color="#CCD2D6" stop-opacity="0.250980"/>
		</linearGradient>
		<linearGradient x1="14.989235" y1="50.827671" x2="14.989235" y2="189.366760" id="paint_linear_14_755_0" gradientUnits="userSpaceOnUse">
			<stop stop-color="#CCD2D6" stop-opacity="0.101961"/>
			<stop offset="1.000000" stop-color="#CCD2D6" stop-opacity="0.250980"/>
		</linearGradient>
		<linearGradient x1="91.708298" y1="50.827629" x2="91.708298" y2="189.366760" id="paint_linear_14_756_0" gradientUnits="userSpaceOnUse">
			<stop stop-color="#CCD2D6" stop-opacity="0.101961"/>
			<stop offset="1.000000" stop-color="#CCD2D6" stop-opacity="0.250980"/>
		</linearGradient>
	</defs>
	<rect id="загруженное 1" rx="-0.094000" width="187.811996" height="187.811996" transform="translate(0.094000 0.094000)" fill="#FFFFFF" fill-opacity="0"/>
	<g clip-path="url(#clip14_726)">
		<path id="Vector" d="M158.42 136.95C158.42 146.86 150.36 154.93 140.44 154.93L33.86 154.93C30.94 154.93 28.57 152.56 28.57 149.64C28.57 146.71 30.94 144.34 33.86 144.34L140.44 144.34C144.51 144.34 147.83 141.03 147.83 136.95C147.83 132.88 144.51 129.56 140.44 129.56L135.28 129.56L138.19 122.41C139.81 122.74 141.49 122.91 143.21 122.91C145.66 122.91 148.03 122.56 150.28 121.91C155.18 125.12 158.42 130.66 158.42 136.95L158.42 136.95Z" fill="url(#paint_linear_14_727_0)" fill-opacity="1.000000" fill-rule="nonzero"/>
		<path id="Vector" d="M158.84 71.66L156.85 76.57C152.92 74.03 148.24 72.56 143.21 72.56C129.3 72.56 118.03 83.83 118.03 97.73C118.03 109.92 126.69 120.08 138.19 122.41L135.28 129.56L135.11 129.98C133.86 133.07 130.85 135.08 127.52 135.08L45.33 135.08C41.73 135.08 38.55 132.73 37.49 129.29L19.6 70.97C17.98 65.71 21.92 60.38 27.43 60.38L151.25 60.38C153.19 60.38 154.92 61.03 156.29 62.11C159.03 64.25 160.3 68.07 158.84 71.66L158.84 71.66Z" fill="url(#paint_linear_14_728_0)" fill-opacity="1.000000" fill-rule="nonzero"/>
		<path id="Vector" d="M158.84 71.66L156.85 76.57C152.92 74.03 148.24 72.56 143.21 72.56C129.3 72.56 118.03 83.83 118.03 97.73C118.03 109.92 126.69 120.08 138.19 122.41L135.28 129.56L135.11 129.98C133.86 133.07 130.85 135.08 127.52 135.08L45.33 135.08C41.73 135.08 38.55 132.73 37.49 129.29L19.6 70.97C17.98 65.71 21.92 60.38 27.43 60.38L151.25 60.38C153.19 60.38 154.92 61.03 156.29 62.11C159.03 64.25 160.3 68.07 158.84 71.66L158.84 71.66Z" fill="url(#paint_linear_14_729_0)" fill-opacity="1.000000" fill-rule="nonzero"/>
		<path id="Vector" d="M69.94 168.33C69.94 174.31 65.09 179.16 59.11 179.16C53.12 179.16 48.27 174.31 48.27 168.33C48.27 162.35 53.12 157.49 59.11 157.49C65.09 157.49 69.94 162.35 69.94 168.33Z" fill="url(#paint_linear_14_730_0)" fill-opacity="1.000000" fill-rule="evenodd"/>
		<path id="Vector" d="M59.11 173.87C56.05 173.87 53.57 171.38 53.57 168.33C53.57 165.27 56.05 162.79 59.11 162.79C62.16 162.79 64.64 165.28 64.64 168.33C64.64 171.38 62.16 173.87 59.11 173.87Z" fill="url(#paint_linear_14_731_0)" fill-opacity="1.000000" fill-rule="nonzero"/>
		<path id="Vector" d="M128.86 168.33C128.86 174.31 124.01 179.16 118.03 179.16C112.05 179.16 107.19 174.31 107.19 168.33C107.19 162.35 112.05 157.49 118.03 157.49C124.01 157.49 128.86 162.35 128.86 168.33Z" fill="url(#paint_linear_14_732_0)" fill-opacity="1.000000" fill-rule="evenodd"/>
		<path id="Vector" d="M118.03 173.87C114.98 173.87 112.49 171.38 112.49 168.33C112.49 165.27 114.98 162.79 118.03 162.79C121.08 162.79 123.57 165.28 123.57 168.33C123.57 171.38 121.08 173.87 118.03 173.87Z" fill="url(#paint_linear_14_733_0)" fill-opacity="1.000000" fill-rule="nonzero"/>
		<g opacity="0.710000">
			<path id="Vector" d="M94.65 68.55L26.07 68.55C25.76 68.55 25.5 68.29 25.5 67.98C25.5 67.67 25.76 67.42 26.07 67.42L94.65 67.42C94.96 67.42 95.22 67.67 95.22 67.98C95.22 68.29 94.96 68.55 94.65 68.55L94.65 68.55Z" fill="#CCD2D6" fill-opacity="1.000000" fill-rule="nonzero"/>
			<path id="Vector" d="M112.49 74.53L84.22 74.53C83.91 74.53 83.66 74.28 83.66 73.97C83.66 73.66 83.91 73.41 84.22 73.41L112.49 73.41C112.8 73.41 113.05 73.66 113.05 73.97C113.05 74.28 112.8 74.53 112.49 74.53Z" fill="#CCD2D6" fill-opacity="1.000000" fill-rule="nonzero"/>
			<path id="Vector" d="M125.95 128.63L43.26 128.63C42.95 128.63 42.7 128.38 42.7 128.06C42.7 127.75 42.95 127.5 43.26 127.5L125.95 127.5C126.26 127.5 126.51 127.75 126.51 128.06C126.51 128.38 126.26 128.63 125.95 128.63Z" fill="#CCD2D6" fill-opacity="1.000000" fill-rule="nonzero"/>
		</g>
		<path id="Vector" d="M168.3 52.93L165.44 52.93C163.02 52.93 160.76 54.24 159.56 56.35L156.29 62.11C154.92 61.04 153.19 60.38 151.25 60.38L145.09 60.38L150.35 51.12C153.43 45.7 159.21 42.34 165.45 42.34L168.11 42.34C167.27 43.86 166.79 45.61 166.79 47.47C166.79 49.47 167.34 51.34 168.3 52.93L168.3 52.93Z" fill="url(#paint_linear_14_738_0)" fill-opacity="1.000000" fill-rule="nonzero"/>
		<path id="Vector" d="M188 47.47C188 53.33 183.25 58.08 177.39 58.08C173.53 58.08 170.15 56.01 168.3 52.93C167.34 51.33 166.79 49.47 166.79 47.47C166.79 45.61 167.27 43.86 168.11 42.33C169.92 39.08 173.4 36.87 177.39 36.87C183.25 36.87 188 41.62 188 47.47Z" fill="url(#paint_linear_14_739_0)" fill-opacity="1.000000" fill-rule="nonzero"/>
		<path id="Vector" d="M156.85 76.57C152.92 74.03 148.24 72.56 143.21 72.56C129.3 72.56 118.03 83.83 118.03 97.73C118.03 109.92 126.69 120.08 138.19 122.41L138.19 122.41C139.81 122.74 141.49 122.91 143.21 122.91C145.66 122.91 148.03 122.56 150.27 121.91C160.74 118.85 168.39 109.19 168.39 97.73C168.39 88.85 163.79 81.05 156.84 76.57L156.85 76.57ZM153 100.3C153 104.09 152.14 107.02 150.44 109.07C148.74 111.13 146.34 112.16 143.24 112.16C140.14 112.16 137.7 111.12 135.99 109.05C134.28 106.98 133.42 104.07 133.42 100.3L133.42 95.17C133.42 91.38 134.27 88.45 135.98 86.39C137.68 84.34 140.09 83.31 143.2 83.31C146.31 83.31 148.72 84.35 150.43 86.41C152.14 88.48 153 91.41 153 95.19L153 100.3Z" fill="url(#paint_linear_14_741_0)" fill-opacity="1.000000" fill-rule="nonzero"/>
		<path id="Vector" d="M143.2 88.32C142.08 88.32 141.27 88.79 140.76 89.71C140.25 90.64 139.98 92.04 139.94 93.91L139.94 101.09C139.94 103.18 140.2 104.72 140.73 105.69C141.26 106.66 142.09 107.14 143.24 107.14C144.38 107.14 145.16 106.67 145.69 105.73C146.21 104.78 146.49 103.3 146.5 101.28L146.5 94.34C146.5 92.32 146.24 90.81 145.71 89.82C145.18 88.82 144.34 88.32 143.2 88.32Z" fill="url(#paint_linear_14_742_0)" fill-opacity="1.000000" fill-rule="nonzero"/>
		<path id="Vector" d="M98.91 48.79C99.38 47.41 99.9 46.37 100.48 45.67C101.06 44.98 101.8 44.45 102.7 44.1C103.59 43.74 104.31 43.39 104.83 43.02C105.36 42.65 105.72 42.18 105.92 41.59C106.4 40.16 106.02 39.24 104.79 38.82C104.22 38.63 103.69 38.69 103.2 38.99C102.71 39.29 102.34 39.79 102.08 40.49L97.28 38.89C97.93 37 99.02 35.72 100.55 35.06C102.08 34.4 103.9 34.42 106.03 35.13C108.15 35.84 109.61 36.87 110.45 38.24C111.28 39.6 111.39 41.18 110.79 42.98C110.53 43.77 110.14 44.43 109.61 44.97C109.08 45.51 108.36 46 107.44 46.44L105.3 47.42C104.69 47.71 104.21 48.06 103.87 48.46C103.54 48.87 103.24 49.43 102.98 50.15L98.91 48.79L98.91 48.79ZM96.89 52.92C97.12 52.21 97.57 51.72 98.23 51.44C98.88 51.16 99.59 51.15 100.35 51.4C101.11 51.66 101.66 52.09 102.02 52.71C102.37 53.33 102.44 53.99 102.2 54.69C101.97 55.39 101.52 55.88 100.86 56.16C100.21 56.44 99.5 56.46 98.74 56.21C97.98 55.95 97.42 55.52 97.07 54.9C96.71 54.28 96.65 53.62 96.89 52.92L96.89 52.92Z" fill="url(#paint_linear_14_744_0)" fill-opacity="1.000000" fill-rule="nonzero"/>
		<path id="Vector" d="M79.86 46.19C79.86 44.31 80.07 42.83 80.5 41.74C80.92 40.66 81.61 39.72 82.56 38.92C83.51 38.12 84.24 37.39 84.73 36.73C85.23 36.06 85.48 35.33 85.48 34.54C85.48 32.59 84.64 31.62 82.97 31.62C82.2 31.62 81.57 31.91 81.1 32.47C80.62 33.04 80.37 33.8 80.34 34.77L73.82 34.77C73.85 32.2 74.66 30.19 76.25 28.76C77.85 27.32 80.09 26.61 82.97 26.61C85.84 26.61 88.06 27.27 89.64 28.59C91.21 29.92 92 31.8 92 34.25C92 35.31 91.79 36.29 91.36 37.16C90.94 38.03 90.25 38.93 89.32 39.84L87.1 41.91C86.47 42.51 86.03 43.13 85.79 43.77C85.54 44.41 85.41 45.21 85.38 46.19L79.86 46.19L79.86 46.19ZM79.07 52.06C79.07 51.11 79.41 50.32 80.1 49.71C80.79 49.1 81.65 48.8 82.68 48.8C83.71 48.8 84.57 49.1 85.25 49.71C85.94 50.32 86.29 51.11 86.29 52.06C86.29 53.01 85.94 53.79 85.25 54.4C84.57 55.01 83.71 55.32 82.68 55.32C81.65 55.32 80.79 55.01 80.1 54.4C79.41 53.79 79.07 53.01 79.07 52.06Z" fill="url(#paint_linear_14_745_0)" fill-opacity="1.000000" fill-rule="nonzero"/>
		<path id="Vector" d="M47.07 115.74C45.89 115.74 44.81 114.95 44.5 113.75L36.62 83.68C36.25 82.26 37.09 80.8 38.52 80.43C39.94 80.06 41.39 80.91 41.76 82.33L49.64 112.41C50.02 113.83 49.17 115.28 47.75 115.65C47.52 115.71 47.29 115.74 47.07 115.74L47.07 115.74Z" fill="url(#paint_linear_14_747_0)" fill-opacity="1.000000" fill-rule="nonzero"/>
		<path id="Vector" d="M62.89 115.74C61.62 115.74 60.5 114.83 60.27 113.53L55.07 83.46C54.82 82.01 55.79 80.64 57.23 80.39C58.68 80.14 60.06 81.11 60.31 82.55L65.51 112.63C65.76 114.07 64.79 115.45 63.35 115.7C63.19 115.73 63.04 115.74 62.89 115.74Z" fill="url(#paint_linear_14_748_0)" fill-opacity="1.000000" fill-rule="nonzero"/>
		<path id="Vector" d="M76.49 115.74C75.02 115.74 73.83 114.55 73.83 113.08L73.83 83.01C73.83 81.54 75.02 80.35 76.49 80.35C77.96 80.35 79.15 81.54 79.15 83.01L79.15 113.08C79.15 114.55 77.96 115.74 76.49 115.74Z" fill="url(#paint_linear_14_749_0)" fill-opacity="1.000000" fill-rule="nonzero"/>
		<path id="Vector" d="M143.21 122.91C141.49 122.91 139.81 122.74 138.19 122.41L138.19 122.41C139.81 122.74 141.49 122.91 143.21 122.91L143.21 122.91Z" fill="url(#paint_linear_14_751_0)" fill-opacity="1.000000" fill-rule="nonzero"/>
		<path id="Vector" d="M15.99 40.82L31.48 40.82C35.9 40.82 39.89 42.61 42.79 45.5C45.68 48.4 47.47 52.39 47.47 56.81C47.47 58.04 47.33 59.23 47.07 60.38L134.68 60.38C134.42 59.23 134.27 58.04 134.27 56.81C134.27 47.98 141.43 40.82 150.27 40.82L167.42 40.82C168.03 40.82 168.63 40.78 169.22 40.71C171.17 38.37 174.1 36.87 177.39 36.87C177.57 36.87 177.74 36.88 177.92 36.88C181.28 33.95 183.41 29.64 183.41 24.82C183.41 20.41 181.62 16.41 178.73 13.51C175.83 10.62 171.83 8.83 167.42 8.83L15.99 8.83C7.16 8.83 0 15.99 0 24.82C0 29.24 1.78 33.24 4.68 36.13C7.58 39.03 11.57 40.82 15.99 40.82ZM85.25 54.4C84.57 55.01 83.71 55.32 82.68 55.32C81.65 55.32 80.79 55.01 80.1 54.4C79.42 53.79 79.07 53.01 79.07 52.06C79.07 51.11 79.42 50.32 80.1 49.71C80.79 49.1 81.65 48.8 82.68 48.8C83.71 48.8 84.57 49.1 85.25 49.71C85.94 50.32 86.29 51.11 86.29 52.06C86.29 53.01 85.94 53.79 85.25 54.4ZM100.55 35.06C102.08 34.4 103.9 34.42 106.03 35.13C108.14 35.84 109.61 36.87 110.45 38.24C111.28 39.6 111.39 41.18 110.79 42.98C110.53 43.77 110.14 44.43 109.61 44.97C109.08 45.51 108.36 46 107.44 46.44L105.3 47.42C104.69 47.71 104.21 48.06 103.87 48.47C103.54 48.88 103.24 49.44 102.98 50.15L98.91 48.79C99.38 47.41 99.9 46.37 100.48 45.67C101.06 44.98 101.8 44.45 102.69 44.1C103.59 43.74 104.3 43.39 104.83 43.02C105.36 42.65 105.72 42.18 105.92 41.59C106.4 40.16 106.02 39.24 104.79 38.82C104.22 38.63 103.69 38.69 103.2 38.99C102.71 39.29 102.34 39.79 102.08 40.49L97.28 38.89C97.93 37 99.02 35.72 100.55 35.06L100.55 35.06ZM96.89 52.92C97.12 52.21 97.57 51.72 98.22 51.44C98.88 51.16 99.59 51.15 100.35 51.4C101.1 51.66 101.66 52.09 102.02 52.71C102.37 53.33 102.43 53.99 102.2 54.69C101.96 55.39 101.52 55.88 100.86 56.16C100.2 56.44 99.5 56.46 98.74 56.21C97.98 55.95 97.42 55.52 97.07 54.9C96.71 54.28 96.65 53.62 96.88 52.92L96.89 52.92ZM76.25 28.76C77.85 27.32 80.09 26.61 82.97 26.61C85.85 26.61 88.06 27.27 89.64 28.6C91.21 29.92 92 31.8 92 34.25C92 35.32 91.79 36.29 91.36 37.16C90.94 38.04 90.25 38.93 89.32 39.85L87.1 41.91C86.47 42.52 86.03 43.14 85.79 43.77C85.54 44.41 85.41 45.21 85.38 46.19L79.86 46.19C79.86 44.31 80.07 42.83 80.5 41.74C80.92 40.66 81.61 39.72 82.56 38.92C83.51 38.12 84.24 37.39 84.73 36.73C85.23 36.06 85.48 35.33 85.48 34.54C85.48 32.59 84.64 31.62 82.97 31.62C82.2 31.62 81.57 31.91 81.1 32.47C80.62 33.04 80.37 33.8 80.34 34.77L73.82 34.77C73.85 32.2 74.66 30.19 76.25 28.76L76.25 28.76Z" fill="url(#paint_linear_14_752_0)" fill-opacity="1.000000" fill-rule="nonzero"/>
		<path id="Vector" d="M150.44 109.07C152.14 107.02 153 104.09 153 100.3L153 95.19C153 91.41 152.14 88.48 150.43 86.41C148.72 84.35 146.31 83.31 143.2 83.31C140.09 83.31 137.68 84.34 135.98 86.39C134.27 88.45 133.42 91.38 133.42 95.17L133.42 100.3C133.42 104.07 134.28 106.98 135.99 109.05C137.7 111.12 140.11 112.16 143.24 112.16C146.36 112.16 148.74 111.13 150.44 109.07ZM140.73 105.69C140.2 104.72 139.94 103.18 139.94 101.09L139.94 93.92C139.98 92.04 140.25 90.64 140.76 89.71C141.27 88.79 142.08 88.32 143.2 88.32C144.32 88.32 145.18 88.82 145.71 89.82C146.23 90.82 146.5 92.32 146.5 94.34L146.5 101.28C146.49 103.3 146.22 104.78 145.69 105.73C145.16 106.67 144.34 107.15 143.24 107.15C142.13 107.15 141.26 106.66 140.73 105.69Z" fill="url(#paint_linear_14_753_0)" fill-opacity="1.000000" fill-rule="nonzero"/>
		<path id="Vector" d="M167.42 72.81L158.38 72.81L156.85 76.57C163.79 81.05 168.39 88.85 168.39 97.73C168.39 100.19 168.04 102.56 167.38 104.8L167.42 104.8C176.25 104.8 183.41 97.64 183.41 88.8C183.41 84.39 181.62 80.39 178.73 77.49C175.83 74.6 171.83 72.81 167.42 72.81Z" fill="url(#paint_linear_14_754_0)" fill-opacity="1.000000" fill-rule="nonzero"/>
		<path id="Vector" d="M15.99 104.8L29.98 104.8L20.16 72.81L15.99 72.81C7.16 72.81 0 79.97 0 88.8C0 93.22 1.78 97.22 4.68 100.11C7.58 103.01 11.57 104.8 15.99 104.8Z" fill="url(#paint_linear_14_755_0)" fill-opacity="1.000000" fill-rule="nonzero"/>
		<path id="Vector" d="M167.42 136.79L164.75 136.79C162.48 136.79 160.32 136.31 158.36 135.46C158.4 135.95 158.42 136.45 158.42 136.95C158.42 146.87 150.36 154.94 140.44 154.94L33.86 154.94C30.94 154.94 28.57 152.56 28.57 149.64C28.57 146.71 30.94 144.34 33.86 144.34L140.44 144.34C144.51 144.34 147.83 141.03 147.83 136.95C147.83 132.88 144.51 129.56 140.44 129.56L135.28 129.56L135.11 129.98C133.86 133.07 130.85 135.09 127.52 135.09L75.55 135.09C73.39 136.17 70.96 136.79 68.37 136.79L15.99 136.79C7.16 136.79 0 143.95 0 152.78C0 157.2 1.78 161.2 4.68 164.09C7.58 166.99 11.57 168.78 15.99 168.78L48.28 168.78C48.28 168.63 48.27 168.48 48.27 168.33C48.27 162.35 53.12 157.5 59.1 157.5C65.09 157.5 69.94 162.35 69.94 168.33C69.94 168.48 69.93 168.63 69.93 168.78L107.2 168.78C107.2 168.63 107.19 168.48 107.19 168.33C107.19 162.35 112.04 157.5 118.03 157.5C124.01 157.5 128.86 162.35 128.86 168.33C128.86 168.48 128.86 168.63 128.85 168.78L167.42 168.78C176.25 168.78 183.41 161.62 183.41 152.78C183.41 148.37 181.62 144.37 178.73 141.47C175.83 138.58 171.83 136.79 167.42 136.79L167.42 136.79Z" fill="url(#paint_linear_14_756_0)" fill-opacity="1.000000" fill-rule="nonzero"/>
	</g>
</svg>
